<svg xmlns="http://www.w3.org/2000/svg" viewBox="0 0 64 64" role="img" aria-label="Raspa y gana">
  <defs>
    <linearGradient id="bg" x1="8" y1="6" x2="56" y2="58" gradientUnits="userSpaceOnUse">
      <stop offset="0" stop-color="#315f77"/>
      <stop offset="1" stop-color="#4f867c"/>
    </linearGradient>
    <linearGradient id="foil" x1="18" y1="20" x2="47" y2="45" gradientUnits="userSpaceOnUse">
      <stop offset="0" stop-color="#edf2f6"/>
      <stop offset=".52" stop-color="#b9c6d0"/>
      <stop offset="1" stop-color="#f7fbff"/>
    </linearGradient>
  </defs>
  <rect width="64" height="64" rx="17" fill="url(#bg)"/>
  <path fill="#fff8e9" d="M15 17h34a4 4 0 0 1 4 4v22a4 4 0 0 1-4 4H15a4 4 0 0 1-4-4v-4a5 5 0 0 0 0-10v-8a4 4 0 0 1 4-4Z"/>
  <path fill="#dfe8ee" d="M17 28h30v13H17z"/>
  <path fill="url(#foil)" d="M18 27h28a2 2 0 0 1 2 2v11a2 2 0 0 1-2 2H18a2 2 0 0 1-2-2V29a2 2 0 0 1 2-2Z"/>
  <path stroke="#fff" stroke-linecap="round" stroke-width="2" opacity=".58" d="m20 39 10-10m-2 12 13-13m-1 13 6-6"/>
  <path stroke="#315f77" stroke-dasharray="2 3" stroke-linecap="round" stroke-width="2" opacity=".42" d="M16 23h32"/>
  <circle cx="46" cy="20" r="3" fill="#4f867c"/>
  <path fill="#315f77" d="M24 49h16v3H24z"/>
</svg>
